<svg width="184" height="57" viewBox="0 0 184 57" fill="none" xmlns="http://www.w3.org/2000/svg">
<g clip-path="url(#clip0_377_8)">
<path fill-rule="evenodd" clip-rule="evenodd" d="M28.4 0C34 0 39.5 1.7 44.2 4.8C48.9 7.9 52.5 12.4 54.7 17.6C56.9 22.8 57.4 28.5 56.3 34.1C55.2 39.6 52.5 44.7 48.5 48.7C44.5 52.7 39.5 55.4 33.9 56.5C28.4 57.6 22.7 57 17.5 54.9C12.3 52.7 7.9 49 4.8 44.3C1.7 39.6 0 34.1 0 28.5C0 20.9 3 13.7 8.3 8.4C13.7 3 20.9 0 28.4 0ZM94.6 8.6C94.6 8.5 94.6 8.4 94.5 8.3C94.5 8.2 94.4 8.1 94.3 8.1L94.1 7.9C94 7.9 93.9 7.8 93.8 7.8H89.7C89.5 7.8 89.3 7.9 89.2 8C89.1 8.1 89 8.3 89 8.5V20.7C89 28.3 105.7 28.3 105.7 20.7V8.6C105.7 8.5 105.7 8.4 105.6 8.3C105.6 8.2 105.5 8.1 105.4 8.1L105.2 7.9C105.1 7.9 105 7.8 104.9 7.8H100.8C100.6 7.8 100.4 7.9 100.3 8C100.2 8.1 100.1 8.3 100.1 8.5V20C100.1 22.3 94.6 22.3 94.6 20V8.6V8.6ZM146.1 25.4C146.1 25.5 146.1 25.6 146.2 25.7C146.2 25.8 146.3 25.9 146.4 25.9L146.6 26.1C146.7 26.1 146.8 26.2 146.9 26.2H151C151.1 26.2 151.2 26.2 151.3 26.1C151.4 26.1 151.5 26 151.5 25.9L151.7 25.7C151.7 25.6 151.8 25.5 151.8 25.4V8.6C151.8 8.5 151.8 8.4 151.7 8.3C151.7 8.2 151.6 8.1 151.5 8.1L151.3 7.9C151.2 7.9 151.1 7.8 151 7.8H146.9C146.8 7.8 146.7 7.8 146.6 7.9C146.5 7.9 146.4 8 146.4 8.1L146.2 8.3C146.2 8.4 146.1 8.5 146.1 8.6V25.4ZM122.2 8.2C122.4 8.3 122.6 8.4 122.7 8.6C122.8 8.8 122.9 9 122.9 9.2V12.2C122.9 12.3 122.9 12.4 122.8 12.5C122.7 12.6 122.7 12.7 122.6 12.8C122.5 12.9 122.4 12.9 122.3 12.9C122.2 12.9 122.1 12.9 121.9 12.8C120.5 12.2 113.9 11.2 114 13.3C114 14.6 115.6 14.5 116.5 14.5C120.3 14.6 124.3 15.5 124.3 20.3C124.3 23.1 122.9 24.9 120.9 25.6C118.2 26.6 112.6 26.5 109.9 25.6C109.7 25.5 109.5 25.4 109.4 25.2C109.3 25 109.2 24.8 109.2 24.6V21.6C109.2 21.5 109.2 21.4 109.3 21.3C109.4 21.2 109.4 21.1 109.5 21C109.6 20.9 109.7 20.9 109.8 20.9C109.9 20.9 110 20.9 110.1 21C111.5 21.6 118.5 22.7 118.5 20.5C118.4 19.2 117.1 19.3 116.1 19.3C112.2 19.3 108.2 18.2 108.2 13.5C108.2 10.7 109.6 8.9 111.6 8.2C114.3 7.2 119.5 7.2 122.2 8.2V8.2ZM84.7 8.2C84.9 8.3 85.1 8.4 85.2 8.6C85.3 8.8 85.4 9 85.4 9.2V12.2C85.4 12.3 85.4 12.4 85.3 12.6C85.2 12.7 85.2 12.8 85.1 12.9C85 12.9 84.9 13 84.8 13C84.7 13 84.6 13 84.5 12.9C83.1 12.3 76.5 11.3 76.6 13.4C76.7 14.7 78.2 14.6 79.1 14.6C83 14.7 86.9 15.6 86.9 20.4C86.9 23.2 85.5 25 83.5 25.7C80.8 26.7 75.2 26.6 72.5 25.7C72.3 25.6 72.1 25.5 72 25.3C71.9 25.1 71.8 24.9 71.8 24.7V21.7C71.8 21.6 71.8 21.5 71.9 21.4C72 21.3 72 21.2 72.1 21.1C72.2 21 72.3 21 72.4 21C72.5 21 72.6 21 72.7 21.1C74.1 21.7 81.1 22.8 81.1 20.6C81 19.3 79.7 19.4 78.7 19.4C74.8 19.4 70.8 18.3 70.8 13.6C70.8 10.8 72.2 9 74.2 8.3C76.9 7.2 82 7.2 84.7 8.2V8.2ZM137.6 14.7H132V8.6C132 8.4 131.9 8.2 131.8 8.1C131.7 8 131.5 7.9 131.3 7.9H127.2C127.1 7.9 127 7.9 126.9 8C126.8 8 126.7 8.1 126.7 8.2L126.5 8.4C126.5 8.5 126.4 8.6 126.4 8.7V25.5C126.4 25.6 126.4 25.7 126.5 25.8C126.5 25.9 126.6 26 126.7 26L126.9 26.2C127 26.2 127.1 26.3 127.2 26.3H131.3C131.5 26.3 131.7 26.2 131.8 26.1C131.9 26 132 25.8 132 25.6V19.5H137.6V25.6C137.6 25.8 137.7 26 137.8 26.1C137.9 26.2 138.1 26.3 138.3 26.3H142.4C142.6 26.3 142.8 26.2 142.9 26.1C143 26 143.1 25.8 143.1 25.6V8.6C143.1 8.4 143 8.2 142.9 8.1C142.8 8 142.6 7.9 142.4 7.9H138.3C138.1 7.9 137.9 8 137.8 8.1C137.7 8.2 137.6 8.4 137.6 8.6V14.7V14.7ZM107.3 41.6L105.4 35.4L103.5 41.6H107.3V41.6ZM156.3 35.4H164.1C164.2 35.4 164.3 35.4 164.4 35.3C164.5 35.3 164.6 35.2 164.6 35.1L164.8 34.9C164.8 34.8 164.9 34.7 164.9 34.6V31.5C164.9 31.4 164.9 31.3 164.8 31.2C164.8 31.1 164.7 31 164.6 31L164.4 30.8C164.3 30.8 164.2 30.7 164.1 30.7H152.5C152 30.7 151.6 30.9 151.2 31.2C150.9 31.5 150.7 32 150.7 32.5V47.1C150.7 47.6 150.9 48 151.2 48.4C151.5 48.7 152 48.9 152.5 48.9H164.1C164.2 48.9 164.3 48.9 164.4 48.8C164.5 48.8 164.6 48.7 164.6 48.6L164.8 48.4C164.8 48.3 164.9 48.2 164.9 48.1V45C164.9 44.9 164.9 44.8 164.8 44.7C164.8 44.6 164.7 44.5 164.6 44.5L164.4 44.3C164.3 44.3 164.2 44.2 164.1 44.2H156.3V41.9H163.1C163.3 41.9 163.5 41.8 163.6 41.7C163.7 41.6 163.8 41.4 163.8 41.2V38.1C163.8 37.9 163.7 37.7 163.6 37.6C163.5 37.5 163.3 37.4 163.1 37.4H156.3V35.4V35.4ZM172.8 35.4V40H176.6C179.1 40 179.1 35.4 176.6 35.4H172.8ZM133.3 35.4H137.8V48.4C137.8 48.5 137.8 48.6 137.9 48.7C137.9 48.8 138 48.9 138.1 48.9L138.3 49.1C138.4 49.1 138.5 49.2 138.6 49.2H142.7C142.8 49.2 142.9 49.2 143 49.1C143.1 49.1 143.2 49 143.2 48.9C143.2 48.8 143.3 48.8 143.4 48.7C143.4 48.6 143.5 48.5 143.5 48.4V35.4H148C148.1 35.4 148.2 35.4 148.3 35.3C148.4 35.3 148.5 35.2 148.5 35.1L148.7 34.9C148.7 34.8 148.8 34.7 148.8 34.6V31.5C148.8 31.4 148.8 31.3 148.7 31.2C148.7 31.1 148.6 31 148.5 31L148.3 30.8C148.2 30.8 148.1 30.7 148 30.7H133.4C133.3 30.7 133.2 30.7 133.1 30.8C133 30.9 132.9 30.9 132.9 31L132.7 31.2C132.7 31.3 132.6 31.4 132.6 31.5V34.6C132.6 34.7 132.6 34.8 132.7 34.9C132.7 35 132.8 35.1 132.9 35.1L133.1 35.3C133.1 35.4 133.2 35.4 133.3 35.4V35.4ZM129.6 31.2C129.8 31.3 130 31.4 130.1 31.6C130.2 31.8 130.3 32 130.3 32.2V35.2C130.3 35.3 130.3 35.4 130.2 35.5C130.1 35.6 130.1 35.7 130 35.8C129.9 35.9 129.8 35.9 129.7 35.9C129.6 35.9 129.5 35.9 129.4 35.8C128 35.1 121.4 34.1 121.5 36.3C121.5 37.6 123.1 37.5 124 37.5C127.8 37.6 131.8 38.5 131.8 43.3C131.8 46.1 130.4 47.9 128.4 48.6C125.7 49.6 120.1 49.5 117.4 48.6C117.2 48.5 117 48.4 116.9 48.2C116.8 48 116.7 47.8 116.7 47.6V44.6C116.7 44.5 116.7 44.4 116.8 44.2C116.9 44.1 116.9 44 117 43.9C117.1 43.8 117.2 43.8 117.3 43.8C117.4 43.8 117.5 43.8 117.7 43.9C119.1 44.5 126.1 45.5 126.1 43.4C126.1 42.1 124.7 42.2 123.7 42.2C119.8 42.2 115.8 41.1 115.8 36.4C115.8 33.6 117.2 31.8 119.2 31.1C121.8 30.3 126.9 30.3 129.6 31.2V31.2ZM181.4 43.5L183.1 48.3C183.1 48.4 183.2 48.5 183.1 48.6C183.1 48.7 183 48.8 183 48.9C182.9 49 182.9 49.1 182.8 49.1C182.7 49.2 182.6 49.2 182.5 49.2H178.6C178.4 49.2 178.2 49.1 178 49C177.8 48.9 177.7 48.7 177.6 48.5L176.2 44.6H172.8V48.4C172.8 48.5 172.8 48.6 172.7 48.7C172.7 48.8 172.6 48.9 172.5 48.9L172.3 49.1C172.2 49.1 172.1 49.2 172 49.2H167.9C167.7 49.2 167.5 49.1 167.4 49C167.3 48.9 167.2 48.7 167.2 48.5V32.7C167.2 32.5 167.2 32.2 167.3 32C167.4 31.8 167.5 31.6 167.7 31.4C167.9 31.2 168.1 31.1 168.3 31C168.5 30.9 168.8 30.9 169 30.9H177.8C184.6 30.9 185.8 40.2 181.4 43.5ZM85.5 31.4L82 38.8L78.4 31.3C78.3 31.1 78.2 31 78.1 30.9C78 30.8 77.8 30.8 77.6 30.8H73C72.8 30.8 72.6 30.9 72.4 31C72.2 31.1 72.1 31.4 72.1 31.6L70.4 48.3V48.6C70.4 48.7 70.5 48.8 70.6 48.9L70.8 49.1C70.9 49.1 71 49.2 71.1 49.2H75.2C75.4 49.2 75.6 49.1 75.8 49C76 48.8 76.1 48.6 76.1 48.4L77 39.8L80 46.3C80.1 46.4 80.2 46.6 80.3 46.7C80.4 46.8 80.6 46.8 80.8 46.8H83.3C83.5 46.8 83.6 46.8 83.8 46.7C83.9 46.6 84.1 46.5 84.1 46.3L87.1 39.9L88 48.5C88 48.7 88.1 48.9 88.3 49.1C88.5 49.3 88.7 49.3 88.9 49.3H93C93.1 49.3 93.2 49.3 93.3 49.2C93.4 49.2 93.5 49.1 93.5 49C93.6 48.9 93.6 48.8 93.7 48.7V48.4L92 31.8C92 31.6 91.9 31.4 91.7 31.2C91.5 31 91.3 31 91.1 31H86.4C86.2 31 86.1 31 85.9 31.1C85.7 31.2 85.6 31.2 85.5 31.4V31.4ZM101.8 30.9H109C109.2 30.9 109.4 31 109.6 31.1C109.8 31.2 109.9 31.4 110 31.6L115.1 48.2V48.5C115.1 48.6 115 48.7 115 48.8C114.9 48.9 114.8 49 114.7 49C114.6 49.1 114.5 49.1 114.4 49.1H110.5C110.3 49.1 110.1 49 109.9 48.9C109.7 48.8 109.6 48.6 109.5 48.4L108.8 46.1H102L101.3 48.4C101.2 48.6 101.1 48.8 100.9 48.9C100.7 49 100.5 49.1 100.3 49.1H96.4C96.3 49.1 96.2 49.1 96.1 49C96 49 95.9 49 95.9 48.9C95.8 48.8 95.8 48.7 95.8 48.6V48.3L100.9 31.7C101 31.5 101.1 31.3 101.3 31.2C101.4 30.9 101.6 30.9 101.8 30.9V30.9Z" fill="#071F77"/>
<path fill-rule="evenodd" clip-rule="evenodd" d="M41.0999 10.8C40.8999 11.9 40.2999 12.9 39.4999 13.6C39.3999 13.7 39.1999 13.8 39.0999 13.8H38.5999C37.4999 13.6 36.4999 13 35.7999 12.2C35.6999 12.1 35.5999 11.9 35.5999 11.8V11.3C35.7999 10.2 36.3999 9.2 37.1999 8.5C37.2999 8.4 37.4999 8.3 37.5999 8.3H38.0999C39.1999 8.5 40.1999 9.1 40.8999 9.9C40.9999 10 41.0999 10.2 41.0999 10.3V10.8ZM48.1999 19.4C47.4999 20.2 46.4999 20.8 45.3999 21.1H44.8999C44.6999 21.1 44.5999 21 44.4999 20.9C43.6999 20.2 43.0999 19.2 42.7999 18.1V17.6C42.7999 17.4 42.8999 17.3 42.9999 17.2C43.6999 16.4 44.6999 15.8 45.7999 15.5H46.2999C46.4999 15.5 46.5999 15.6 46.6999 15.7C47.4999 16.4 48.0999 17.4 48.3999 18.5V19C48.3999 19.1 48.2999 19.2 48.1999 19.4ZM19.6999 8.5C20.4999 9.3 21.0999 10.3 21.2999 11.3V11.8C21.2999 12 21.1999 12.1 21.0999 12.2C20.2999 13 19.3999 13.6 18.2999 13.8H17.7999C17.5999 13.8 17.4999 13.7 17.3999 13.6C16.5999 12.8 15.9999 11.8 15.7999 10.8V10.3C15.7999 10.1 15.8999 10 15.9999 9.9C16.7999 9.1 17.6999 8.5 18.7999 8.3H19.2999C19.3999 8.4 19.5999 8.4 19.6999 8.5V8.5ZM10.9999 15.5C12.0999 15.8 12.9999 16.4 13.7999 17.2C13.8999 17.3 13.9999 17.5 13.9999 17.6V18.1C13.6999 19.2 13.1999 20.2 12.2999 20.9C12.1999 20.9 11.9999 21 11.8999 21H11.3999C10.2999 20.7 9.3999 20.2 8.5999 19.3C8.4999 19.2 8.3999 19 8.3999 18.9V18.4C8.6999 17.3 9.1999 16.3 10.0999 15.6C10.1999 15.5 10.3999 15.4 10.4999 15.4C10.5999 15.4 10.7999 15.4 10.9999 15.5V15.5ZM30.6999 6.8C30.9999 7.9 30.9999 9 30.6999 10C30.6999 10.2 30.5999 10.3 30.4999 10.4C30.3999 10.5 30.2999 10.6 30.0999 10.6C28.9999 10.9 27.8999 10.9 26.8999 10.6C26.6999 10.6 26.5999 10.5 26.4999 10.4C26.3999 10.3 26.2999 10.2 26.2999 10C25.9999 8.9 25.9999 7.8 26.2999 6.7C26.2999 6.5 26.3999 6.4 26.4999 6.3C26.5999 6.2 26.6999 6.1 26.8999 6.1C27.9999 5.8 29.0999 5.8 30.0999 6.1C30.2999 6.1 30.3999 6.2 30.4999 6.3C30.4999 6.5 30.5999 6.7 30.6999 6.8V6.8ZM29.5999 34.1C31.4999 31.2 32.7999 27.9 33.1999 24.5C33.1999 24.4 33.1999 24.4 33.2999 24.3C33.2999 24.2 33.3999 24.2 33.4999 24.2H33.6999C33.7999 24.2 33.7999 24.2 33.8999 24.3C35.1999 25.3 36.6999 26.1 38.2999 26.6C38.3999 26.6 38.4999 26.7 38.4999 26.8C38.5999 26.9 38.5999 27 38.4999 27.1C37.6999 31.1 36.0999 34.8 33.6999 38.1C33.6999 38.2 33.5999 38.2 33.5999 38.2C33.4999 38.2 33.4999 38.3 33.3999 38.3H33.1999C33.0999 38.3 33.0999 38.3 32.9999 38.2C31.7999 37.2 30.5999 36.1 29.5999 34.9C29.4999 34.8 29.4999 34.7 29.4999 34.6C29.4999 34.3 29.5999 34.2 29.5999 34.1V34.1ZM28.0999 43.4C23.0999 39.3 19.5999 33.5 18.2999 27.1V26.8C18.3999 26.7 18.3999 26.6 18.4999 26.6C20.0999 26.1 21.5999 25.3 22.8999 24.3C22.9999 24.3 22.9999 24.2 23.0999 24.2H23.2999C23.3999 24.2 23.3999 24.3 23.4999 24.3C23.4999 24.4 23.5999 24.4 23.5999 24.5C24.3999 30.4 27.4999 35.7 32.0999 39.4L32.1999 39.5C32.1999 39.6 32.1999 39.6 32.2999 39.7V39.9C32.2999 40 32.2999 40 32.1999 40.1C31.1999 41.3 29.9999 42.4 28.7999 43.4C28.6999 43.5 28.5999 43.5 28.4999 43.5C28.2999 43.5 28.1999 43.4 28.0999 43.4V43.4ZM48.6999 29.2C49.3999 28.8 49.8999 28.2 50.2999 27.5C50.5999 26.8 50.6999 26 50.5999 25.2C50.5999 25.1 50.5999 25.1 50.4999 25L50.3999 24.9H50.1999C50.0999 24.9 50.0999 24.9 49.9999 25C47.1999 26.8 43.7999 27.6 40.4999 27.1C40.3999 27.1 40.2999 27.1 40.1999 27.2C40.0999 27.3 40.0999 27.4 39.9999 27.5C39.4999 29.9 38.6999 32.3 37.5999 34.6V35C37.5999 35.1 37.6999 35.1 37.6999 35.2C37.6999 35.3 37.7999 35.3 37.7999 35.3C40.4999 36.5 43.4999 37.2 46.3999 37.2C46.4999 37.2 46.5999 37.2 46.6999 37.1C46.7999 37 46.8999 37 46.8999 36.9C48.0999 34.3 48.5999 31.7 48.6999 29.2" fill="#ECE010"/>
<path fill-rule="evenodd" clip-rule="evenodd" d="M32.6001 23.1999C33.6001 22.9999 43.2001 21.2999 39.8001 18.5999C36.9001 16.2999 33.5001 14.4999 30.0001 13.4999C28.9001 13.1999 27.8001 13.1999 26.7001 13.4999C23.1001 14.4999 19.8001 16.2999 16.9001 18.6999C13.5001 21.4999 23.1001 23.1999 24.1001 23.2999C24.8001 25.3999 26.4001 28.1999 28.3001 28.1999C30.2001 28.1999 31.9001 25.2999 32.6001 23.1999V23.1999ZM9.8001 36.6999C8.8001 34.2999 8.2001 31.6999 8.1001 29.0999C7.4001 28.6999 6.9001 28.0999 6.5001 27.3999C6.2001 26.6999 6.1001 25.8999 6.2001 25.0999C6.2001 24.9999 6.2001 24.9999 6.3001 24.8999L6.4001 24.7999H6.6001C6.7001 24.7999 6.7001 24.7999 6.8001 24.8999C9.6001 26.6999 13.0001 27.4999 16.3001 26.9999C16.4001 26.9999 16.5001 26.9999 16.6001 27.0999C16.7001 27.1999 16.7001 27.2999 16.8001 27.3999C17.3001 29.7999 18.1001 32.1999 19.2001 34.4999V34.8999C19.2001 34.9999 19.1001 34.9999 19.1001 35.0999C19.1001 35.0999 19.0001 35.1999 18.9001 35.1999C16.2001 36.3999 13.3001 37.0999 10.3001 37.0999C10.2001 37.0999 10.1001 37.0999 10.0001 36.9999C9.9001 36.8999 9.8001 36.7999 9.8001 36.6999V36.6999ZM38.0001 48.8999C35.0001 50.2999 31.7001 51.0999 28.4001 51.0999C27.8001 51.0999 27.3001 51.0999 26.7001 50.9999H26.5001C26.4001 50.9999 26.4001 50.8999 26.4001 50.8999C26.4001 50.8999 26.3001 50.7999 26.3001 50.6999V50.4999C27.0001 47.6999 28.7001 45.1999 31.0001 43.3999C33.3001 41.5999 36.1001 40.6999 39.0001 40.6999C41.6001 40.6999 42.8001 41.8999 42.8001 43.4999C42.9001 45.5999 41.3001 47.2999 38.0001 48.8999V48.8999ZM18.8001 48.8999C20.6001 49.6999 22.4001 50.2999 24.3001 50.6999C24.4001 50.6999 24.5001 50.6999 24.6001 50.5999C24.7001 50.4999 24.8001 50.3999 24.8001 50.2999C25.2001 48.4999 26.0001 46.7999 27.1001 45.2999C27.2001 45.1999 27.2001 45.0999 27.2001 44.9999C27.2001 44.8999 27.1001 44.7999 27.0001 44.6999C25.8001 43.4999 24.3001 42.4999 22.7001 41.7999C21.1001 41.0999 19.4001 40.7999 17.6001 40.7999C15.0001 40.7999 13.8001 41.9999 13.8001 43.5999C13.9001 45.5999 15.5001 47.2999 18.8001 48.8999Z" fill="#ECE010"/>
</g>
<defs>
<clipPath id="clip0_377_8">
<rect width="184" height="57" fill="white"/>
</clipPath>
</defs>
</svg>
